<?xml version="1.0" standalone="no"?>
<!DOCTYPE svg PUBLIC "-//W3C//DTD SVG 20010904//EN"
 "http://www.w3.org/TR/2001/REC-SVG-20010904/DTD/svg10.dtd">
<svg version="1.0" xmlns="http://www.w3.org/2000/svg"
 width="300.000000pt" height="300.000000pt" viewBox="0 0 300.000000 300.000000"
 preserveAspectRatio="xMidYMid meet">
<metadata>
Created by potrace 1.10, written by Peter Selinger 2001-2011
</metadata>
<g transform="translate(0.000000,300.000000) scale(0.100000,-0.100000)"
fill="#000000" stroke="none">
<path d="M1408 1939 c-15 -8 -18 -25 -18 -113 0 -98 -1 -105 -27 -132 -15 -16
-26 -30 -24 -32 1 -1 1 -8 -1 -14 -5 -15 -58 -1 -58 15 0 8 -10 23 -22 33 -32
29 -78 19 -98 -21 -9 -19 -21 -29 -32 -27 -9 2 -33 -4 -53 -12 -29 -12 -41
-13 -58 -4 -25 13 -91 12 -118 -3 -17 -8 -18 -6 -13 19 5 23 1 33 -17 45 -19
14 -26 14 -56 2 -25 -10 -41 -12 -60 -4 -20 7 -30 6 -41 -5 -13 -12 -18 -12
-46 5 -39 24 -68 24 -97 1 l-22 -19 24 -94 c34 -132 82 -181 126 -130 16 19
17 19 49 -5 l32 -25 36 36 36 36 32 -31 c29 -30 35 -31 82 -26 50 6 61 6 129
5 17 -1 43 -1 57 -1 26 1 206 -5 228 -7 9 -1 12 -31 12 -114 0 -173 -45 -156
429 -157 376 0 398 1 414 18 14 16 17 40 18 135 0 128 8 149 51 126 55 -29
143 7 136 57 -1 12 3 29 11 37 17 21 8 60 -20 86 -26 24 -98 33 -120 14 -20
-17 -34 -17 -49 2 -9 11 -12 52 -11 145 2 91 -2 134 -11 149 -13 21 -18 21
-413 21 -253 0 -406 -4 -417 -11z m822 -139 c0 -73 -4 -120 -10 -120 -6 0 -10
45 -10 115 l0 115 -390 0 -390 0 0 -106 c0 -67 -4 -103 -10 -99 -6 3 -10 52
-10 111 l0 104 410 0 410 0 0 -120z m-50 -20 c3 -52 9 -100 13 -106 11 -18
-41 -48 -66 -37 -11 5 -47 6 -81 2 -33 -4 -65 -5 -70 -2 -8 5 -52 7 -84 4 -5
-1 -25 -17 -45 -38 l-37 -36 0 26 c0 119 -142 175 -229 90 -15 -15 -25 -38
-28 -65 -5 -53 -10 -69 -20 -66 -4 1 -18 -3 -29 -10 -20 -10 -22 -9 -27 16 -3
15 -3 48 0 73 3 29 1 49 -6 53 -12 8 -16 178 -4 189 4 4 164 6 357 5 l351 -3
5 -95z m-454 -86 c45 -22 57 -46 55 -113 -2 -60 -29 -117 -75 -160 l-26 -24
-26 24 c-42 39 -84 120 -84 162 0 63 27 100 90 120 25 9 30 8 66 -9z m-483
-104 c-4 -72 -2 -104 7 -115 11 -13 6 -15 -36 -15 -27 0 -44 4 -37 8 6 4 14
43 18 88 6 67 5 83 -9 96 -22 23 -21 26 17 31 17 2 35 5 39 5 3 1 4 -43 1 -98z
m-567 78 c4 -5 -3 -8 -15 -8 -18 0 -22 -4 -16 -17 3 -10 11 -39 17 -65 6 -27
14 -48 17 -48 3 0 15 30 26 68 27 90 43 88 71 -8 l21 -75 11 40 c24 90 24 93
5 104 -20 12 -20 12 25 16 36 3 37 2 18 -28 -7 -12 -24 -59 -37 -104 -30 -102
-50 -110 -74 -31 -8 28 -15 58 -15 65 0 33 -17 7 -34 -52 -28 -98 -46 -90 -82
35 -18 61 -34 100 -42 100 -7 0 -11 3 -9 8 3 4 28 7 55 7 28 0 54 -3 58 -7z
m794 0 c0 -4 -7 -8 -15 -8 -12 0 -15 -17 -15 -95 0 -94 0 -95 24 -95 17 0 31
10 43 30 20 35 38 40 29 8 -3 -13 -6 -29 -6 -35 0 -10 -31 -13 -120 -13 l-120
0 -19 39 -20 38 25 24 c22 21 23 25 9 35 -13 10 -9 12 25 16 42 4 54 -6 21
-17 -42 -13 -45 -32 -15 -80 21 -33 35 -45 49 -43 18 3 20 12 23 96 2 77 0 92
-13 92 -8 0 -15 4 -15 8 0 4 25 8 55 8 30 0 55 -4 55 -8z m781 -63 c11 4 19 2
19 -4 0 -6 -9 -11 -21 -11 -18 0 -20 -5 -17 -52 2 -43 6 -53 21 -52 21 2 22
-12 1 -20 -29 -11 -62 -6 -68 10 -3 9 -6 38 -6 65 0 27 -4 49 -10 49 -5 0 -10
5 -10 10 0 6 6 10 13 10 8 0 22 10 33 21 l19 21 3 -26 c3 -21 7 -26 23 -21z
m-1228 -16 c33 -40 18 -98 -33 -124 -35 -18 -70 -8 -94 27 -24 34 -19 66 14
100 26 25 36 29 63 24 18 -3 40 -16 50 -27z m115 9 c17 29 32 28 32 -2 0 -18
-6 -25 -22 -28 -20 -3 -23 -10 -26 -50 -2 -38 0 -47 15 -51 10 -3 -7 -5 -37
-5 -30 0 -49 2 -42 5 15 6 17 123 2 123 -5 0 -10 4 -10 9 0 6 15 11 33 13 25
2 33 -1 38 -17 5 -19 6 -19 17 3z m836 6 c9 -8 16 -25 16 -37 -1 -21 -2 -20
-24 7 -34 41 -56 30 -56 -27 0 -55 19 -75 55 -59 29 14 34 -2 6 -18 -31 -16
-76 -12 -95 9 -11 12 -18 36 -18 58 0 64 76 108 116 67z m144 0 c18 -12 22
-25 22 -70 0 -34 4 -54 12 -54 6 0 9 -3 6 -6 -3 -3 -36 -8 -72 -11 -63 -5 -66
-4 -77 21 -16 34 2 56 47 56 31 0 34 3 34 29 0 41 -13 45 -44 14 -29 -28 -42
-26 -31 6 10 32 67 40 103 15z m287 -9 c40 -39 33 -55 -25 -55 -27 0 -50 -3
-50 -8 0 -16 33 -53 44 -49 6 2 22 7 36 11 l25 7 -24 -20 c-34 -30 -84 -28
-110 5 -29 37 -26 70 8 105 36 35 64 37 96 4z m-548 -137 c28 -30 77 -37 113
-18 13 7 26 6 46 -5 15 -8 31 -12 36 -9 4 3 35 7 68 9 52 4 60 2 61 -13 3 -81
-4 -178 -14 -184 -7 -4 -167 -7 -357 -5 l-345 2 -3 102 -3 103 30 -6 c23 -5
36 0 57 20 l28 26 23 -28 c13 -15 21 -35 19 -44 -4 -16 4 -18 65 -18 55 0 67
3 63 14 -3 8 12 40 32 71 36 54 38 55 47 33 4 -12 20 -35 34 -50z m-427 -138
l0 -110 390 0 390 0 0 110 c0 67 4 110 10 110 6 0 10 -47 10 -120 l0 -120
-410 0 -410 0 0 120 c0 73 4 120 10 120 6 0 10 -43 10 -110z"/>
<path d="M1648 1639 c-25 -14 -24 -75 1 -89 29 -15 49 -12 72 11 45 45 -17
111 -73 78z m50 -46 c-2 -10 -10 -18 -18 -18 -8 0 -16 8 -18 18 -2 12 3 17 18
17 15 0 20 -5 18 -17z"/>
<path d="M939 1583 c-10 -26 -7 -98 5 -110 11 -12 36 7 42 33 8 33 -6 96 -23
102 -7 2 -18 -9 -24 -25z"/>
<path d="M2052 1508 c2 -13 10 -23 18 -23 8 0 16 10 18 23 3 17 -2 22 -18 22
-16 0 -21 -5 -18 -22z"/>
<path d="M2340 1592 c0 -6 -3 -17 -6 -26 -5 -12 0 -16 21 -16 22 0 26 4 23 22
-3 22 -38 40 -38 20z"/>
<path d="M1623 1353 c8 -8 116 -7 124 1 4 3 -24 6 -62 6 -38 0 -65 -3 -62 -7z"/>
</g>
</svg>
